<?xml version="1.0" encoding="utf-8"?>
<!-- Generator: Adobe Illustrator 14.0.0, SVG Export Plug-In . SVG Version: 6.00 Build 43363)  -->
<!DOCTYPE svg PUBLIC "-//W3C//DTD SVG 1.1//EN" "http://www.w3.org/Graphics/SVG/1.1/DTD/svg11.dtd">
<svg version="1.1" id="Layer_1" xmlns="http://www.w3.org/2000/svg" xmlns:xlink="http://www.w3.org/1999/xlink" x="0px" y="0px"
	 width="611.306px" height="568.512px" viewBox="91.801 15.624 611.306 568.512"
	 enable-background="new 91.801 15.624 611.306 568.512" xml:space="preserve">
<g>
	<g>
		<path fill="#3F3B3C" d="M182.321,584.327v-82.168h-46.106c-24.536,0-44.414,18.398-44.414,41.089
			c0,22.681,19.885,41.079,44.414,41.079h14.131v-17.861h-14.063c-14.27,0-25.886-10.039-25.886-23.218
			c0-13.193,11.335-23.228,25.593-23.228h28.601v64.307H182.321z"/>
		<path fill="#3F3B3C" d="M241.049,499.065c-23.56,0-42.651,16.204-42.651,40.771v44.476h17.346v-45.464
			c0-15.82,13.521-24.951,25.305-24.951c11.768,0,25.049,9.131,25.049,24.951l-0.005,45.464h17.595v-44.476
			C283.688,515.269,264.596,499.065,241.049,499.065z"/>
		<path fill="#3F3B3C" d="M379.733,542.725c0-23.682-15.642-40.571-39.197-40.571h-39.092v17.858h40.039
			c15.173,0,21.44,10.628,21.44,22.469c0,11.834-6.506,23.979-21.672,23.979l-40.039-0.005v17.681h39.087
			C363.852,584.136,379.733,566.407,379.733,542.725z"/>
		<path fill="#3F3B3C" d="M703.106,542.725c0-23.682-15.648-40.571-39.196-40.571h-39.087v17.858h40.039
			c15.174,0,21.436,10.628,21.436,22.469c0,11.834-6.494,23.979-21.68,23.979l-40.027-0.005v17.681h39.088
			C687.226,584.136,703.106,566.407,703.106,542.725z"/>
		<path fill="#3F3B3C" d="M460.821,556.573c7.557-4.121,11.305-11.682,11.305-24.621c0-22.779-12.086-29.798-35.645-29.798h-39.078
			v17.858h40.042c15.173,0,17.884,4.827,17.884,11.688c0,6.867-2.21,12.734-17.371,12.734l-40.037-0.008l-0.029,16.414h39.089
			c0.379,0,0.732,0,1.111-0.015c7.751,0.85,13.806,7.437,13.806,15.462c0,2.556,0.452,4.992-0.659,7.129
			c0.012,0.293,1.086,0.598,1.086,0.902h16.139C468.464,584.327,471.394,566.815,460.821,556.573z"/>
		<path fill="#3F3B3C" d="M488.324,542.059c0,23.363,18.151,42.316,40.552,42.316s40.552-18.945,40.552-42.316
			c0-23.348-18.151-42.298-40.552-42.298S488.324,518.712,488.324,542.059z M504.597,542.059c0-13.973,10.876-25.318,24.279-25.318
			s24.279,11.341,24.279,25.318c0,14.001-10.876,25.329-24.279,25.329S504.597,556.06,504.597,542.059z"/>
		<rect x="589.228" y="502.154" fill="#3F3B3C" width="17.773" height="82.158"/>
	</g>
	<g>
		<path fill="#94C147" d="M552.777,147.57c-14.147,0-25.622,11.652-25.622,26.02v101.68c0,14.372,11.475,26.019,25.622,26.019
			s25.61-11.646,25.61-26.019V173.59C578.388,159.222,566.925,147.57,552.777,147.57z M243.766,147.57
			c-14.155,0-25.618,11.652-25.618,26.02v101.68c0,14.372,11.462,26.019,25.618,26.019c14.153,0,25.623-11.646,25.623-26.019V173.59
			C269.381,159.222,257.914,147.57,243.766,147.57z"/>
		<path fill="#94C147" d="M284.799,148.364v185.768c0,11.035,8.948,19.98,19.983,19.98h22.815v56.567
			c0,14.37,11.47,26.016,25.623,26.016c14.148,0,25.623-11.646,25.623-26.016v-56.567h39.878v56.567
			c0,14.37,11.463,26.016,25.61,26.016s25.622-11.646,25.622-26.016v-56.567h22.828c11.022,0,19.971-8.953,19.971-19.98V148.364
			H284.799L284.799,148.364z"/>
		<path fill="#94C147" d="M452.302,52.105l21.057-30.572c1.245-1.819,0.939-4.199-0.695-5.329c-1.637-1.123-3.968-0.568-5.225,1.251
			l-21.875,31.75c-14.404-5.682-30.418-8.844-47.293-8.844c-16.87,0-32.893,3.162-47.297,8.844l-21.875-31.75
			c-1.257-1.819-3.589-2.375-5.225-1.251s-1.946,3.509-0.696,5.329l21.057,30.572c-33.464,15.57-56.951,45.166-59.941,79.706H512.25
			C509.259,97.271,485.772,67.676,452.302,52.105z M350.187,100.28c-6.965,0-12.617-5.646-12.617-12.616
			c0-6.958,5.647-12.61,12.617-12.61s12.603,5.652,12.603,12.61C362.79,94.629,357.15,100.28,350.187,100.28z M447.931,100.28
			c-6.97,0-12.609-5.646-12.609-12.616c0-6.958,5.64-12.61,12.609-12.61c6.971,0,12.61,5.652,12.61,12.61
			C460.541,94.629,454.901,100.28,447.931,100.28z"/>
	</g>
</g>
</svg>
