<?xml version="1.0" encoding="UTF-8" standalone="no"?>
<!-- Generator: Adobe Illustrator 14.0.0, SVG Export Plug-In . SVG Version: 6.00 Build 43363)  -->

<svg
   xmlns:dc="http://purl.org/dc/elements/1.1/"
   xmlns:cc="http://creativecommons.org/ns#"
   xmlns:rdf="http://www.w3.org/1999/02/22-rdf-syntax-ns#"
   xmlns:svg="http://www.w3.org/2000/svg"
   xmlns="http://www.w3.org/2000/svg"
   xmlns:sodipodi="http://sodipodi.sourceforge.net/DTD/sodipodi-0.dtd"
   xmlns:inkscape="http://www.inkscape.org/namespaces/inkscape"
   version="1.1"
   id="Layer_1"
   x="0px"
   y="0px"
   width="611.306px"
   height="568.512px"
   viewBox="91.801 15.624 611.306 568.512"
   enable-background="new 91.801 15.624 611.306 568.512"
   xml:space="preserve"
   inkscape:version="0.47 r22583"
   sodipodi:docname="mysterydroid.svg"><metadata
   id="metadata2924"><rdf:RDF><cc:Work
       rdf:about=""><dc:format>image/svg+xml</dc:format><dc:type
         rdf:resource="http://purl.org/dc/dcmitype/StillImage" /></cc:Work></rdf:RDF></metadata><defs
   id="defs2922"><inkscape:perspective
   sodipodi:type="inkscape:persp3d"
   inkscape:vp_x="0 : 284.25601 : 1"
   inkscape:vp_y="0 : 1000 : 0"
   inkscape:vp_z="611.30603 : 284.25601 : 1"
   inkscape:persp3d-origin="305.65302 : 189.50401 : 1"
   id="perspective2926" />
	
	

		
		
		
	</defs><sodipodi:namedview
   pagecolor="#ffffff"
   bordercolor="#666666"
   borderopacity="1"
   objecttolerance="10"
   gridtolerance="10"
   guidetolerance="10"
   inkscape:pageopacity="0"
   inkscape:pageshadow="2"
   inkscape:window-width="1366"
   inkscape:window-height="694"
   id="namedview2920"
   showgrid="false"
   inkscape:zoom="0.94"
   inkscape:cx="435.35321"
   inkscape:cy="271.55446"
   inkscape:window-x="0"
   inkscape:window-y="25"
   inkscape:window-maximized="1"
   inkscape:current-layer="Layer_1" />
<path
   d="m 543.1412,236.70112 c -14.147,0 -25.622,11.652 -25.622,26.02 v 101.68 c 0,14.372 11.475,26.019 25.622,26.019 14.147,0 25.61,-11.646 25.61,-26.019 v -101.68 c 10e-4,-14.368 -11.462,-26.02 -25.61,-26.02 z m -309.011,0 c -14.155,0 -25.618,11.652 -25.618,26.02 v 101.68 c 0,14.372 11.462,26.019 25.618,26.019 14.153,0 25.623,-11.646 25.623,-26.019 v -101.68 c -0.008,-14.368 -11.475,-26.02 -25.623,-26.02 z"
   id="path2914"
   style="fill:#000000;fill-opacity:1" /><path
   d="m 275.1632,237.49512 v 185.768 c 0,11.035 8.948,19.98 19.983,19.98 h 22.815 v 56.567 c 0,14.37 11.47,26.016 25.623,26.016 14.148,0 25.623,-11.646 25.623,-26.016 v -56.567 h 39.878 v 56.567 c 0,14.37 11.463,26.016 25.61,26.016 14.147,0 25.622,-11.646 25.622,-26.016 v -56.567 h 22.828 c 11.022,0 19.971,-8.953 19.971,-19.98 v -185.768 h -227.953 l 0,0 z"
   id="path2916"
   style="fill:#000000;fill-opacity:1" /><path
   d="m 442.6662,141.23612 21.057,-30.572 c 1.245,-1.819 0.939,-4.199 -0.695,-5.329 -1.637,-1.123 -3.968,-0.568 -5.225,1.251 l -21.875,31.75 c -14.404,-5.682 -30.418,-8.844 -47.293,-8.844 -16.87,0 -32.893,3.162 -47.297,8.844 l -21.875,-31.75 c -1.257,-1.819 -3.589,-2.375 -5.225,-1.251 -1.636,1.124 -1.946,3.509 -0.696,5.329 l 21.057,30.572 c -33.464,15.57 -56.951,45.166 -59.941,79.706 h 227.956 c -2.991,-34.54 -26.478,-64.135 -59.948,-79.706 z m -102.115,48.175 c -6.965,0 -12.617,-5.646 -12.617,-12.616 0,-6.958 5.647,-12.61 12.617,-12.61 6.97,0 12.603,5.652 12.603,12.61 0,6.965 -5.64,12.616 -12.603,12.616 z m 97.744,0 c -6.97,0 -12.609,-5.646 -12.609,-12.616 0,-6.958 5.64,-12.61 12.609,-12.61 6.971,0 12.61,5.652 12.61,12.61 0,6.965 -5.64,12.616 -12.61,12.616 z"
   id="path2918"
   style="fill:#000000;fill-opacity:1" />
<flowRoot
   xml:space="preserve"
   id="flowRoot3715"
   style="fill:black;stroke:none;stroke-opacity:1;stroke-width:1px;stroke-linejoin:miter;stroke-linecap:butt;fill-opacity:1;font-family:Bitstream Vera Sans;font-style:normal;font-weight:normal;font-size:40px"><flowRegion
     id="flowRegion3717"><rect
       id="rect3719"
       width="216.80544"
       height="199.94279"
       x="190.30699"
       y="224.03229" /></flowRegion><flowPara
     id="flowPara3721"></flowPara></flowRoot><text
   xml:space="preserve"
   style="font-size:173.46711731px;font-style:normal;font-weight:normal;fill:#ffffff;fill-opacity:1;stroke:none;font-family:Bitstream Vera Sans"
   x="344.88327"
   y="389.79248"
   id="text3723"><tspan
     sodipodi:role="line"
     id="tspan3725"
     x="344.88327"
     y="389.79248"
     style="fill:#ffffff;fill-opacity:1">?</tspan></text>
</svg>